<?xml version="1.0" standalone="no"?>
<!DOCTYPE svg PUBLIC "-//W3C//DTD SVG 20010904//EN"
 "http://www.w3.org/TR/2001/REC-SVG-20010904/DTD/svg10.dtd">
<svg version="1.0" xmlns="http://www.w3.org/2000/svg"
 width="1200.000000pt" height="1200.000000pt" viewBox="0 0 1200.000000 1200.000000"
 preserveAspectRatio="xMidYMid meet">
<metadata>
Created by potrace 1.16, written by Peter Selinger 2001-2019
</metadata>
<g transform="translate(0.000000,1200.000000) scale(0.100000,-0.100000)"
fill="#000000" stroke="none">
<path d="M5640 11989 c-1663 -103 -3189 -876 -4253 -2153 -1315 -1578 -1728
-3726 -1095 -5685 631 -1952 2225 -3450 4213 -3961 1554 -400 3215 -159 4580
663 1240 747 2177 1922 2620 3287 391 1204 392 2507 3 3709 -467 1444 -1469
2660 -2802 3401 -696 387 -1498 638 -2301 720 -289 29 -682 37 -965 19z m660
-19 c574 -32 1057 -123 1590 -300 1787 -594 3186 -1993 3780 -3780 212 -637
304 -1207 304 -1890 0 -684 -91 -1249 -304 -1890 -401 -1208 -1176 -2252
-2225 -2995 -759 -537 -1660 -897 -2577 -1030 -306 -44 -518 -58 -858 -59
-463 -1 -821 35 -1245 125 -1694 358 -3148 1432 -3995 2953 -677 1216 -905
2656 -639 4036 95 492 267 1007 489 1467 476 985 1231 1834 2160 2429 1044
669 2296 1001 3520 934z"/>
<path d="M5720 11304 c-25 -2 -106 -8 -180 -14 -963 -77 -1918 -440 -2710
-1030 -1132 -843 -1888 -2110 -2084 -3491 -43 -303 -51 -418 -51 -769 0 -351
8 -466 51 -770 140 -989 572 -1931 1239 -2705 133 -154 428 -448 573 -570 870
-734 1912 -1162 3057 -1254 157 -13 605 -12 770 0 1045 81 2039 460 2854 1089
346 268 703 626 972 975 495 642 842 1408 998 2200 73 372 95 605 95 1025 1
351 -6 463 -45 750 -148 1076 -643 2106 -1391 2897 -897 947 -2041 1511 -3343
1648 -140 15 -697 28 -805 19z m540 -69 c0 -42 4 -55 15 -55 10 0 16 16 21 51
l7 52 106 -7 c58 -4 109 -10 112 -14 5 -6 -6 -140 -24 -284 -5 -36 -4 -38 22
-38 l28 0 12 118 c6 64 14 136 18 160 l5 43 37 -5 c20 -3 72 -11 117 -17 l81
-11 -9 -50 c-5 -28 -7 -52 -4 -55 14 -14 34 10 39 47 3 23 8 44 11 47 10 10
208 -30 213 -43 3 -8 -9 -79 -27 -160 -17 -80 -30 -147 -28 -149 2 -1 13 -6
25 -9 25 -8 22 -17 59 164 15 74 30 138 33 142 5 6 218 -38 229 -47 1 -1 -5
-24 -13 -50 -11 -37 -11 -51 -3 -56 18 -11 24 -4 38 46 7 25 18 45 24 45 18 0
190 -51 198 -59 4 -3 -14 -75 -41 -159 -49 -152 -49 -153 -28 -162 12 -4 25
-5 28 -1 3 3 27 73 53 154 54 171 34 159 181 106 50 -18 85 -36 85 -45 0 -7
-8 -29 -17 -49 -15 -31 -15 -37 -3 -45 12 -8 20 0 36 36 12 24 24 47 26 50 4
3 196 -71 206 -80 1 -2 -27 -70 -63 -151 -51 -115 -63 -150 -53 -157 27 -17
41 1 99 132 33 74 64 139 68 143 8 8 211 -87 211 -99 0 -4 -9 -22 -21 -41 -19
-31 -20 -63 -2 -63 5 0 19 20 33 45 14 25 27 45 29 45 20 0 441 -247 441 -259
0 -3 -12 -24 -26 -45 -20 -29 -23 -41 -14 -49 12 -12 25 -1 61 53 l16 24 84
-58 c46 -32 88 -62 92 -66 5 -5 -34 -67 -86 -138 -94 -129 -100 -142 -61 -154
7 -2 51 51 99 117 48 66 91 124 95 129 8 8 170 -110 185 -134 3 -5 -9 -25 -26
-45 -25 -28 -29 -39 -20 -48 10 -9 20 -4 47 26 23 25 39 35 48 30 24 -15 155
-128 155 -135 1 -4 -46 -60 -104 -124 -102 -113 -105 -117 -88 -136 20 -22 1
-38 163 140 l75 82 85 -79 85 -79 -38 -39 c-28 -29 -34 -42 -26 -50 9 -9 22
-4 52 22 22 19 43 32 47 30 4 -3 39 -40 78 -83 l70 -78 -71 -63 c-172 -153
-171 -151 -150 -172 17 -17 22 -14 133 86 63 58 118 105 122 105 4 0 41 -39
83 -87 83 -97 81 -84 15 -133 -20 -15 -22 -21 -13 -31 10 -10 21 -6 53 16 24
17 44 25 50 19 5 -5 36 -44 69 -88 l61 -78 -23 -17 c-12 -10 -70 -52 -129 -95
-60 -43 -108 -81 -108 -86 0 -4 7 -13 15 -20 17 -14 22 -12 163 92 51 38 99
71 105 73 11 4 137 -169 137 -187 0 -4 -12 -14 -27 -22 -48 -26 -54 -32 -48
-48 6 -14 12 -13 48 8 23 13 45 24 49 24 14 0 258 -418 258 -442 0 -3 -20 -14
-45 -24 -25 -9 -45 -18 -45 -20 0 -1 3 -9 6 -17 5 -14 11 -13 51 4 24 10 46
19 49 19 2 0 26 -45 54 -100 l50 -99 -48 -21 c-262 -116 -251 -110 -240 -135
12 -27 0 -31 177 49 69 31 128 53 131 49 7 -8 33 -68 69 -160 l20 -52 -48 -16
c-40 -13 -48 -20 -44 -35 5 -19 6 -19 54 1 l50 19 10 -28 c6 -15 24 -63 39
-107 l27 -80 -151 -51 c-129 -44 -151 -54 -148 -70 2 -10 6 -21 8 -23 2 -3 72
17 155 43 83 26 152 46 154 44 3 -4 65 -214 65 -221 0 -3 -17 -8 -38 -12 -49
-8 -63 -17 -52 -34 6 -11 16 -12 51 -3 29 7 46 8 50 1 11 -18 50 -201 44 -207
-3 -3 -72 -20 -153 -37 -146 -31 -164 -41 -144 -72 6 -9 46 -4 161 21 103 22
154 29 156 22 8 -23 35 -179 35 -201 0 -19 -7 -24 -45 -29 -34 -6 -45 -12 -45
-25 0 -16 6 -17 48 -10 26 4 49 5 50 4 5 -5 34 -216 30 -220 -2 -2 -73 -11
-158 -20 -85 -9 -157 -18 -158 -20 -2 -2 -1 -13 3 -24 8 -25 17 -26 190 -6 71
8 130 13 132 12 1 -2 5 -55 9 -120 l7 -117 -47 0 c-40 0 -46 -3 -46 -21 0 -18
5 -20 48 -17 l47 3 0 -255 0 -255 -47 0 c-35 0 -48 -4 -51 -16 -4 -13 5 -18
40 -22 24 -2 46 -7 50 -10 3 -3 2 -53 -2 -111 -9 -124 13 -114 -190 -91 -134
15 -149 12 -142 -25 2 -12 36 -19 157 -31 85 -9 156 -17 158 -18 2 -1 1 -13
-2 -28 -2 -16 -10 -67 -16 -116 l-12 -87 -48 6 c-37 5 -48 3 -53 -9 -5 -13 4
-17 39 -23 24 -3 47 -10 50 -15 5 -9 -25 -192 -36 -208 -4 -8 -52 -1 -150 19
-79 17 -150 28 -157 26 -20 -8 -16 -46 5 -45 10 0 12 3 5 6 -15 6 -17 33 -3
33 9 0 199 -39 268 -55 21 -5 32 -35 13 -35 -5 0 -62 11 -127 25 -64 14 -121
24 -127 22 -6 -2 51 -16 127 -32 112 -23 136 -31 132 -44 -2 -9 -15 -60 -27
-114 -26 -108 -20 -103 -95 -81 -14 4 -23 0 -27 -10 -4 -11 6 -19 36 -29 50
-17 51 -24 13 -149 l-27 -86 -150 50 c-83 28 -152 49 -153 47 -2 -2 -7 -14
-10 -26 -6 -20 2 -25 136 -68 79 -26 147 -50 151 -54 6 -6 -56 -204 -68 -219
-1 -2 -22 5 -45 14 -36 14 -43 15 -51 3 -8 -13 19 -31 74 -51 7 -3 -66 -194
-79 -207 -2 -2 -67 24 -144 58 -77 34 -145 59 -150 56 -6 -3 -10 -14 -10 -24
0 -14 35 -34 140 -81 77 -34 140 -64 140 -67 0 -9 -101 -203 -105 -203 -3 0
-23 9 -44 20 -36 18 -40 18 -46 2 -3 -9 -3 -18 2 -19 4 -2 23 -12 41 -23 l33
-21 -46 -87 c-63 -117 -206 -352 -214 -352 -3 0 -23 11 -43 25 -32 22 -37 23
-43 7 -6 -16 -2 -21 49 -57 18 -13 16 -18 -39 -97 -32 -46 -61 -87 -66 -92 -4
-5 -65 33 -134 83 -118 86 -128 91 -141 74 -7 -10 -13 -20 -14 -23 0 -3 57
-45 125 -95 69 -49 125 -91 125 -93 0 -6 -131 -171 -140 -177 -5 -3 -22 7 -40
21 -24 21 -34 24 -43 15 -9 -10 -5 -19 21 -42 39 -35 40 -35 -56 -139 l-59
-65 -111 103 c-62 56 -116 102 -122 102 -5 0 -14 -8 -19 -19 -9 -16 6 -33 104
-121 l115 -102 -71 -79 c-39 -44 -76 -82 -81 -85 -5 -4 -24 8 -42 25 -27 26
-35 29 -44 18 -9 -11 -7 -18 9 -33 46 -41 44 -47 -44 -126 l-82 -75 -100 113
c-55 62 -103 113 -106 113 -3 1 -14 -5 -24 -13 -18 -13 -16 -18 50 -91 39 -43
86 -96 105 -118 l34 -40 -54 -50 c-30 -27 -70 -61 -89 -75 l-34 -26 -27 32
c-18 22 -32 31 -44 26 -15 -6 -14 -10 9 -40 14 -18 25 -37 25 -42 0 -11 -155
-132 -169 -132 -5 0 -49 54 -96 120 -48 66 -90 120 -94 120 -3 0 -14 -6 -23
-13 -15 -12 -7 -26 73 -135 49 -68 89 -126 89 -130 0 -4 -43 -36 -96 -72 -78
-53 -97 -62 -104 -50 -6 8 -10 17 -10 20 -2 17 -30 39 -43 34 -15 -5 -14 -10
6 -45 14 -25 19 -41 12 -48 -18 -17 -218 -137 -328 -196 l-108 -57 -17 41
c-18 44 -20 45 -40 32 -11 -7 -10 -16 6 -48 l21 -39 -100 -49 c-61 -30 -102
-45 -107 -40 -5 6 -35 70 -67 143 -32 72 -61 132 -65 132 -3 0 -14 -6 -23 -13
-16 -11 -13 -23 43 -147 33 -73 59 -138 57 -143 -3 -11 -182 -87 -203 -87 -7
0 -19 18 -25 40 -7 22 -13 40 -15 40 -1 0 -9 -3 -17 -6 -14 -5 -14 -10 -1 -47
8 -22 11 -44 7 -48 -10 -10 -216 -79 -235 -79 -16 0 -103 253 -94 276 12 32
25 8 67 -127 24 -78 45 -135 47 -128 1 8 -17 73 -41 144 -41 120 -46 130 -68
127 -12 -1 -24 -4 -26 -5 -1 -2 19 -70 47 -151 56 -169 66 -147 -75 -186 -43
-12 -85 -24 -92 -27 -8 -3 -16 11 -24 41 -15 60 -35 55 -31 -7 3 -46 3 -46
-35 -56 -73 -19 -175 -42 -178 -39 -1 2 -15 62 -29 133 -35 170 -33 165 -62
165 -13 0 -24 -4 -24 -8 0 -5 14 -73 30 -152 17 -79 27 -147 23 -150 -8 -8
-175 -40 -205 -40 -13 0 -20 11 -24 40 -5 29 -11 40 -24 40 -15 0 -17 -7 -13
-44 5 -42 4 -44 -23 -50 -57 -11 -187 -26 -191 -22 -3 2 -12 72 -21 156 l-15
151 -26 -3 c-14 -2 -26 -7 -25 -13 12 -104 26 -296 23 -299 -2 -3 -55 -8 -117
-12 l-112 -7 0 47 c0 39 -3 46 -20 46 -17 0 -20 -7 -20 -50 l0 -50 -255 0
-255 0 0 50 c0 37 -4 50 -14 50 -10 0 -17 -16 -22 -46 l-7 -47 -106 8 c-58 3
-108 9 -110 11 -2 2 2 70 9 151 8 82 13 150 12 153 -1 3 -12 6 -25 8 -23 3
-24 1 -39 -148 -9 -84 -18 -154 -21 -156 -2 -2 -53 2 -112 11 -60 8 -110 15
-113 15 -2 0 -1 20 2 44 5 33 3 45 -8 49 -15 6 -26 -12 -26 -41 -1 -43 -12
-46 -116 -27 -55 9 -103 20 -107 24 -4 4 6 72 23 151 16 79 30 147 30 152 0 4
-11 8 -24 8 -29 0 -27 5 -62 -165 -14 -71 -28 -131 -29 -133 -2 -2 -53 9 -115
23 l-112 27 7 32 c11 52 11 60 -6 64 -12 2 -18 -7 -23 -33 -4 -20 -13 -38 -21
-41 -12 -5 -184 39 -207 52 -3 3 16 70 43 151 27 81 47 148 46 150 -2 1 -14 4
-26 5 -22 3 -27 -7 -68 -127 -24 -71 -42 -136 -41 -144 2 -7 23 50 47 128 42
135 55 159 67 127 9 -25 -78 -276 -96 -276 -15 0 -239 75 -246 83 -2 2 3 21
11 41 9 20 13 41 10 46 -12 20 -27 9 -42 -30 -9 -22 -19 -40 -23 -40 -17 0
-194 78 -197 87 -2 5 24 70 57 143 56 124 59 136 43 147 -9 7 -20 13 -23 13
-4 0 -33 -60 -65 -133 -32 -72 -62 -136 -67 -142 -9 -10 -208 83 -208 98 0 4
7 21 15 38 16 29 13 49 -6 49 -5 0 -17 -16 -26 -35 -9 -19 -21 -35 -27 -35
-14 0 -161 81 -314 172 l-133 80 27 35 c21 28 23 37 13 49 -10 12 -16 10 -37
-21 -14 -19 -29 -35 -34 -35 -13 0 -177 113 -178 122 0 4 40 63 90 130 80 110
88 124 73 135 -9 7 -20 13 -24 13 -4 0 -46 -54 -94 -120 -47 -66 -91 -120 -96
-120 -11 0 -179 128 -179 137 0 3 11 19 25 35 20 24 23 33 14 44 -10 12 -17 8
-43 -21 l-31 -36 -83 71 c-46 39 -82 75 -80 80 2 5 46 57 98 115 52 59 96 111
98 115 2 5 -6 13 -17 19 -22 12 -16 17 -164 -146 -32 -35 -59 -64 -61 -65 -2
-2 -43 32 -91 76 l-86 79 32 33 c26 26 30 37 21 46 -9 9 -19 5 -45 -20 l-33
-32 -45 48 c-24 26 -59 63 -77 83 l-33 36 116 102 c99 89 113 105 104 122 -5
10 -14 19 -19 19 -4 0 -59 -46 -121 -102 l-112 -102 -59 64 c-33 36 -68 77
-79 91 l-19 27 35 23 c38 26 39 28 26 48 -8 12 -15 9 -41 -12 -17 -15 -35 -27
-40 -27 -8 0 -140 162 -140 172 0 2 56 44 125 93 68 50 125 92 125 95 -1 3 -7
13 -14 23 -13 17 -23 12 -137 -72 -68 -50 -127 -91 -130 -91 -8 0 -129 176
-129 188 0 6 16 19 35 31 23 14 33 25 29 36 -8 19 -7 19 -53 -10 l-39 -24 -80
132 c-91 151 -172 299 -172 315 0 6 16 16 35 22 40 13 47 21 36 39 -7 10 -14
10 -39 -3 -17 -9 -37 -16 -44 -16 -13 0 -113 188 -105 197 3 2 65 31 138 63
129 57 155 78 131 102 -6 6 -60 -13 -147 -51 -76 -34 -141 -61 -145 -61 -6 0
-90 198 -90 212 0 4 18 13 40 19 28 9 40 18 40 31 0 22 3 22 -50 3 -24 -8 -45
-13 -47 -11 -12 12 -72 200 -66 206 4 4 72 29 151 55 133 44 142 48 136 68 -4
12 -8 24 -10 26 -1 2 -71 -19 -153 -47 l-151 -50 -26 86 c-14 48 -29 99 -34
114 -8 26 -6 28 28 38 20 5 42 10 49 10 6 0 9 8 6 19 -4 16 -9 18 -36 10 -63
-18 -63 -17 -91 98 -14 59 -24 108 -23 109 2 2 295 64 303 64 10 0 3 41 -9 46
-7 2 -78 -9 -157 -26 -102 -22 -145 -27 -150 -19 -4 6 -15 56 -25 111 -20 112
-18 118 43 118 25 0 32 4 32 20 0 19 -4 20 -50 14 -28 -4 -50 -3 -50 2 0 5 -7
54 -15 109 -8 54 -12 101 -9 104 3 3 73 12 157 21 119 12 152 18 154 30 7 37
-7 39 -164 22 -84 -9 -154 -14 -157 -11 -2 2 -7 55 -11 117 l-8 112 46 0 c36
0 46 4 50 20 5 18 0 20 -49 20 l-54 0 2 258 3 257 46 -3 c34 -3 48 0 52 11 7
18 -12 27 -60 27 l-36 0 7 112 c4 62 8 114 10 115 1 1 60 -4 132 -12 173 -20
181 -19 189 6 4 11 5 22 3 24 -2 2 -73 11 -158 20 -85 9 -156 18 -158 20 -2 2
2 41 8 86 19 142 21 150 39 145 65 -18 81 -18 81 2 0 16 -9 21 -45 26 -34 6
-45 12 -45 26 0 18 28 176 35 196 2 7 53 0 157 -22 113 -24 155 -29 160 -21
20 31 1 41 -144 72 -81 17 -150 34 -154 37 -3 3 7 56 21 117 29 122 25 118
103 90 12 -5 22 -7 22 -5 0 3 3 11 6 19 3 10 -3 17 -20 21 -14 3 -36 10 -50
15 l-24 10 30 103 c16 57 31 104 33 106 2 2 71 -18 154 -44 83 -26 153 -46
155 -43 2 2 6 13 8 24 3 17 -16 26 -148 70 l-151 50 13 40 c8 22 26 73 40 112
l26 72 36 -15 c21 -9 42 -18 48 -20 6 -3 14 2 18 11 4 12 -6 21 -39 36 -25 11
-45 24 -45 28 0 12 71 184 80 194 4 4 72 -21 151 -57 143 -64 144 -65 156 -43
14 27 14 27 -67 62 -36 15 -100 43 -142 62 l-77 35 51 102 c28 55 52 103 54
105 2 3 22 -6 44 -18 37 -21 60 -21 60 -1 0 5 -18 19 -40 31 -22 13 -40 27
-40 32 0 19 216 400 247 437 4 4 18 -4 69 -37 18 -11 23 -11 33 0 9 11 3 20
-29 41 -22 14 -40 31 -40 37 0 13 112 178 121 179 3 0 51 -33 107 -74 149
-110 150 -111 167 -96 8 7 15 16 15 20 0 5 -48 43 -107 86 -60 43 -118 85
-131 95 l-22 17 70 91 c39 50 74 91 78 91 4 -1 22 -14 41 -30 27 -23 38 -27
48 -18 12 9 7 18 -27 47 l-42 36 72 83 c39 45 74 82 78 82 4 0 59 -47 122
-104 107 -97 116 -103 133 -88 10 8 16 18 15 22 -2 3 -55 53 -118 110 -63 58
-115 105 -115 106 0 1 35 41 79 89 l79 86 38 -37 c30 -30 42 -35 51 -26 9 9 4
21 -26 51 l-37 38 83 77 83 76 35 -38 c19 -20 69 -75 110 -121 74 -81 76 -82
93 -63 17 19 15 23 -89 138 l-107 118 64 59 c35 32 76 67 91 78 l26 19 29 -40
c15 -22 32 -40 36 -40 20 0 16 32 -7 63 -14 19 -26 36 -26 40 0 13 172 139
180 131 4 -5 47 -63 95 -129 48 -66 92 -119 99 -117 39 12 33 25 -61 154 -52
71 -91 134 -86 138 4 4 48 35 97 69 l89 61 25 -42 c14 -24 26 -44 27 -46 1 -1
10 0 19 4 14 5 13 12 -11 55 -15 26 -25 50 -23 52 37 32 418 247 437 247 5 0
18 -18 28 -40 12 -26 25 -40 37 -40 23 0 23 0 -4 55 -12 24 -20 46 -17 49 19
17 193 96 199 89 5 -4 35 -69 69 -143 58 -131 72 -149 99 -132 10 7 -2 42 -53
157 -36 81 -64 149 -63 151 12 11 204 84 213 80 6 -2 17 -22 24 -45 8 -30 17
-41 31 -41 24 0 24 -6 0 57 l-19 51 84 31 c147 53 127 65 181 -106 26 -81 50
-151 53 -154 3 -4 16 -3 28 1 21 9 21 10 -28 162 -27 84 -45 155 -41 159 4 4
50 19 102 34 52 15 101 30 108 32 6 3 12 -1 12 -8 0 -36 22 -89 37 -89 13 0
14 7 9 39 -3 22 -9 46 -12 54 -4 12 18 20 103 41 59 14 110 22 114 18 3 -4 18
-68 33 -142 37 -181 34 -172 59 -164 12 3 23 8 25 9 2 2 -11 69 -28 149 -18
81 -30 152 -27 160 4 11 163 46 210 46 12 0 18 -13 23 -50 5 -39 11 -50 25
-50 18 0 19 20 4 93 -2 9 -2 17 -1 17 1 0 51 7 111 15 59 9 110 14 111 12 2
-2 11 -74 21 -160 l16 -157 28 0 c26 0 27 2 22 38 -18 144 -29 278 -24 284 3
4 57 10 119 14 l112 7 0 -52 c0 -44 3 -51 20 -51 18 0 20 7 20 55 l0 55 255 0
255 0 0 -55z"/>
<path d="M5927 11162 c-39 -24 -71 -93 -63 -136 21 -111 158 -154 233 -73 43
48 51 94 24 149 -11 24 -34 51 -50 61 -37 22 -108 21 -144 -1z"/>
<path d="M5665 10789 c-531 -38 -1070 -168 -1549 -374 -231 -98 -530 -257
-620 -327 -27 -21 -55 -38 -63 -38 -16 0 -185 -114 -318 -214 -305 -229 -623
-539 -870 -846 -78 -98 -237 -318 -264 -367 -9 -15 -46 -76 -83 -135 -37 -58
-73 -119 -80 -135 -7 -15 -16 -30 -20 -33 -12 -9 -173 -338 -218 -445 -489
-1168 -505 -2473 -44 -3643 58 -147 220 -482 304 -627 397 -691 992 -1298
1680 -1715 181 -109 510 -273 705 -350 1764 -697 3765 -300 5113 1014 316 309
549 600 769 963 777 1282 907 2856 353 4258 -77 194 -240 524 -349 703 -313
519 -733 984 -1226 1357 -206 156 -486 333 -650 411 -33 16 -62 32 -65 35 -7
9 -248 120 -350 162 -364 149 -885 287 -1180 312 -36 3 -99 10 -140 16 -184
24 -612 34 -835 18z m880 -33 c603 -90 980 -197 1470 -419 110 -49 202 -93
205 -96 3 -4 52 -33 110 -65 1253 -697 2141 -1947 2380 -3350 56 -329 64 -440
64 -826 0 -386 -8 -497 -64 -826 -278 -1629 -1419 -3024 -2970 -3629 -385
-150 -795 -250 -1235 -302 -116 -14 -230 -17 -505 -17 -380 0 -493 8 -805 60
-1358 228 -2567 1052 -3288 2241 -359 591 -581 1250 -662 1958 -35 304 -30
806 11 1120 72 553 262 1163 496 1595 60 110 211 374 218 380 3 3 34 48 69
100 282 418 659 816 1070 1129 125 95 281 200 321 218 14 6 45 26 70 45 85 64
333 198 550 295 404 182 833 304 1359 384 146 23 235 26 621 24 314 -2 430 -6
515 -19z"/>
<path d="M5947 6052 c-23 -25 -22 -85 1 -105 25 -23 85 -22 105 1 23 25 22 85
-1 105 -25 23 -85 22 -105 -1z"/>
<path d="M3416 10510 c-82 -25 -121 -124 -76 -197 39 -64 111 -88 175 -57 49
23 75 67 75 126 0 54 -33 102 -87 124 -36 16 -46 16 -87 4z"/>
<path d="M8486 10500 c-82 -25 -121 -124 -76 -197 39 -64 111 -88 175 -57 49
23 75 67 75 126 0 54 -33 102 -87 124 -36 16 -46 16 -87 4z"/>
<path d="M10320 8642 c-55 -27 -83 -77 -77 -136 8 -93 104 -148 189 -110 51
23 78 65 78 122 0 57 -25 98 -75 122 -51 25 -70 25 -115 2z"/>
<path d="M1580 8642 c-81 -36 -114 -128 -70 -199 32 -53 65 -67 144 -64 19 1
41 14 67 40 35 34 39 44 39 87 0 61 -28 110 -75 130 -36 15 -79 17 -105 6z"/>
<path d="M900 6122 c-81 -36 -114 -128 -70 -199 32 -53 65 -67 144 -64 19 1
41 14 67 40 35 34 39 44 39 87 0 61 -28 110 -75 130 -36 15 -79 17 -105 6z"/>
<path d="M10993 6115 c-45 -19 -73 -69 -73 -129 0 -43 4 -53 39 -87 38 -38 56
-44 121 -39 56 4 110 68 110 130 0 102 -102 167 -197 125z"/>
<path d="M1549 3577 c-111 -75 -58 -247 77 -247 102 0 168 119 114 207 -39 64
-128 83 -191 40z"/>
<path d="M10303 3580 c-83 -50 -83 -177 0 -228 92 -57 207 6 207 113 0 106
-116 171 -207 115z"/>
<path d="M3414 1740 c-42 -17 -74 -68 -74 -118 0 -113 112 -179 205 -122 83
51 84 180 3 230 -34 21 -96 26 -134 10z"/>
<path d="M8453 1730 c-112 -68 -61 -250 71 -250 80 0 136 58 136 141 0 102
-117 164 -207 109z"/>
<path d="M5940 1058 c-124 -64 -92 -237 47 -254 104 -13 185 104 135 196 -18
34 -88 80 -122 80 -9 0 -36 -10 -60 -22z"/>
</g>
</svg>
